# xmcd
#
# Track frame offsets:
#	150
#	18765
#	39912
#	58014
#	86972
#	105369
#	129518
#	146332
#	160082
#	179962
#	197140
#
# Disc length: 2824 seconds
#
# Revision: 0
# Processed by: cddbd v1.5.2PL0 Copyright (c) Steve Scherf et al.
# Submitted via: EasyCDDAExtractor 2010.4.0.0
#
DISCID=900b060b
DTITLE=Meybee - Dobrá zpráva letí světem
DYEAR=1900
DGENRE=
TTITLE0=V tudle chvíli
TTITLE1=Dům jak dům
TTITLE2=Z esa je král
TTITLE3=Světloplachá
TTITLE4=Střelec
TTITLE5=Poušť
TTITLE6=Dobrá zpráva
TTITLE7=Diky, bejby
TTITLE8=Aligator
TTITLE9=Poklad a sůl
TTITLE10=Slušnej den
EXTD=
EXTT0=
EXTT1=
EXTT2=
EXTT3=
EXTT4=
EXTT5=
EXTT6=
EXTT7=
EXTT8=
EXTT9=
EXTT10=
PLAYORDER=
